:FULLY-SPECIFIED
:FORCE-ALL-JOINTS-BE-3DOF
:DEGREES
917
root 2.76435 16.2103 32.4176 2.11077 10.5626 2.66816
lfemur -13.1471 1.68571 -0.16768
ltibia 29.1184 -0 0
lfoot -8.01994 -39.4626 -0.017783
ltoes 6.90956 -0 0
rfemur -17.5218 -3.72952 -8.36731
rtibia 40.3798 -0 0
rfoot 9.30035 -14.7001 -0.207027
rtoes -12.7716 0 0
lowerback -0.328391 0.11783 -2.78848
upperback -0.698072 0.160942 -4.83214
thorax -0.536671 0.0747398 -3.42882
lowerneck -7.11222 -5.15729 -1.30583
upperneck 4.30486 -7.13408 5.79755
head 2.93151 -3.3723 1.75984
lclavicle -1.85118e-015 0 0
lhumerus -51.5961 -36.14 108.089
lradius 58.589 -0 0
lwrist 13.4884 0 0
lhand 37.1019 19.8093 0.177089
lfingers 7.12502 -0 0
lthumb 59.8681 33.0762 0.00760131
rclavicle -1.85118e-015 0 0
rhumerus -58.1245 35.0036 -100.604
rradius 116.363 -0 0
rwrist -0.281693 0 0
rhand 0.913386 -12.4317 0.138973
rfingers 7.12502 -0 0
rthumb 26.3678 -39.7935 0.456547
918
root 2.6857 16.169 32.4571 2.41224 9.72703 2.94647
lfemur -11.6144 0.723342 0.299692
ltibia 26.4194 -0 0
lfoot -7.92061 -40.3176 -0.0207484
ltoes 7.68669 -0 0
rfemur -17.9675 -3.56574 -8.69191
rtibia 40.3296 -0 0
rfoot 8.17282 -13.8228 -0.241581
rtoes -16.9752 0 0
lowerback -0.691707 0.0432896 -2.77488
upperback -0.788679 0.0794983 -5.13079
thorax -0.430634 0.0308531 -3.75132
lowerneck -7.10724 -4.79191 -1.11364
upperneck 4.251 -6.66043 5.80717
head 2.88721 -3.1347 1.75374
lclavicle -1.85118e-015 0 0
lhumerus -51.8386 -36.4245 107.885
lradius 58.4906 -0 0
lwrist 14.0715 0 0
lhand 37.9792 20.7736 0.20664
lfingers 7.12502 -0 0
lthumb 60.598 33.126 0.00886868
rclavicle -1.85118e-015 0 0
rhumerus -58.2326 36.5249 -97.6143
rradius 116.156 -0 0
rwrist -0.953584 0 0
rhand 3.65239 -12.1889 0.16226
rfingers 7.12502 -0 0
rthumb 28.9674 -38.9531 0.533044
919
root 2.60705 16.1276 32.4966 2.70888 8.89 3.21965
lfemur -10.0896 -0.251144 0.741123
ltibia 23.7205 -0 0
lfoot -7.82125 -41.1726 -0.0222313
ltoes 8.46382 -0 0
rfemur -18.4142 -3.40448 -9.01773
rtibia 40.2794 -0 0
rfoot 7.0449 -12.9451 -0.258864
rtoes -21.1788 0 0
lowerback -1.05504 -0.0311631 -2.76081
upperback -0.878861 -0.00241664 -5.42931
thorax -0.324352 -0.012436 -4.0739
lowerneck -7.10104 -4.42656 -0.921522
upperneck 4.19728 -6.18677 5.81633
head 2.84289 -2.8971 1.74746
lclavicle -1.85118e-015 0 0
lhumerus -52.0806 -36.7097 107.681
lradius 58.3921 -0 0
lwrist 14.6546 0 0
lhand 38.8569 21.7382 0.221419
lfingers 7.12502 -0 0
lthumb 61.3279 33.1757 0.00950242
rclavicle -1.85118e-015 0 0
rhumerus -58.242 38.0487 -94.5673
rradius 115.949 -0 0
rwrist -1.62547 0 0
rhand 6.39146 -11.9452 0.173917
rfingers 7.12502 -0 0
rthumb 31.5679 -38.11 0.571336
920
root 2.52839 16.0863 32.5361 3.00083 8.0516 3.48787
lfemur -8.57208 -1.23701 1.15656
ltibia 21.0215 -0 0
lfoot -7.72187 -42.0275 -0.0222313
ltoes 9.24095 -0 0
rfemur -18.8616 -3.24577 -9.34474
rtibia 40.2291 -0 0
rfoot 5.91684 -12.0672 -0.258864
rtoes -25.3824 0 0
lowerback -1.41839 -0.105525 -2.74627
upperback -0.968614 -0.0848002 -5.72771
thorax -0.217828 -0.0551259 -4.39655
lowerneck -7.09361 -4.06123 -0.729451
upperneck 4.14368 -5.71311 5.82504
head 2.79855 -2.65952 1.741
lclavicle -1.85118e-015 0 0
lhumerus -52.3223 -36.9956 107.478
lradius 58.2937 -0 0
lwrist 15.2377 0 0
lhand 39.7347 22.7029 0.221419
lfingers 7.12502 -0 0
lthumb 62.0578 33.2255 0.00950242
rclavicle -1.85118e-015 0 0
rhumerus -58.1465 39.5706 -91.4549
rradius 115.743 -0 0
rwrist -2.29737 0 0
rhand 9.13057 -11.7013 0.173917
rfingers 7.12502 -0 0
rthumb 34.1687 -37.266 0.571336
921
root 2.44974 16.0449 32.5756 3.28826 7.21186 3.75124
lfemur -7.06095 -2.2335 1.54595
ltibia 18.3226 -0 0
lfoot -7.62251 -42.8825 -0.0207484
ltoes 10.0181 -0 0
rfemur -19.3099 -3.08962 -9.67293
rtibia 40.1789 -0 0
rfoot 4.78891 -11.1894 -0.241581
rtoes -29.586 0 0
lowerback -1.78177 -0.179794 -2.73125
upperback -1.05794 -0.16765 -6.02597
thorax -0.111066 -0.0972153 -4.71929
lowerneck -7.08496 -3.69593 -0.537416
upperneck 4.09019 -5.23944 5.8333
head 2.7542 -2.42193 1.73435
lclavicle -1.85118e-015 0 0
lhumerus -52.5636 -37.2822 107.276
lradius 58.1952 -0 0
lwrist 15.8208 0 0
lhand 40.6124 23.6675 0.20664
lfingers 7.12502 -0 0
lthumb 62.7877 33.2752 0.00886868
rclavicle -1.85118e-015 0 0
rhumerus -57.9394 41.0862 -88.2682
rradius 115.536 -0 0
rwrist -2.96926 0 0
rhand 11.8696 -11.4576 0.16226
rfingers 7.12502 -0 0
rthumb 36.7692 -36.4229 0.533044
922
root 2.37109 16.0036 32.6151 3.5713 6.37084 4.00992
lfemur -5.55537 -3.23989 1.9092
ltibia 15.6236 -0 0
lfoot -7.52318 -43.7375 -0.017783
ltoes 10.7952 -0 0
rfemur -19.759 -2.93603 -10.0023
rtibia 40.1287 -0 0
rfoot 3.66139 -10.3122 -0.207027
rtoes -33.7897 0 0
lowerback -2.14516 -0.253965 -2.71577
upperback -1.14683 -0.250963 -6.32411
thorax -0.00406726 -0.138703 -5.0421
lowerneck -7.07509 -3.33066 -0.345401
upperneck 4.03681 -4.76575 5.84111
head 2.70982 -2.18435 1.72753
lclavicle -1.85118e-015 0 0
lhumerus -52.8045 -37.5694 107.074
lradius 58.0968 -0 0
lwrist 16.4039 0 0
lhand 41.4897 24.6318 0.177089
lfingers 7.12502 -0 0
lthumb 63.5176 33.325 0.00760131
rclavicle -1.85118e-015 0 0
rhumerus -57.6133 42.5905 -84.998
rradius 115.329 -0 0
rwrist -3.64115 0 0
rhand 14.6086 -11.2148 0.138973
rfingers 7.12502 -0 0
rthumb 39.3688 -35.5825 0.456547
